<?xml version="1.0" encoding="utf-8"?>
<!-- Generator: Adobe Illustrator 25.2.1, SVG Export Plug-In . SVG Version: 6.00 Build 0)  -->
<svg version="1.1" id="Layer_2" xmlns="http://www.w3.org/2000/svg" xmlns:xlink="http://www.w3.org/1999/xlink" x="0px" y="0px"
	 viewBox="0 0 712.4 209.6" style="enable-background:new 0 0 712.4 209.6;" xml:space="preserve">
<style type="text/css">
	.st0{fill:#ECB72B;}
	.st1{fill:#FFFFFF;}
	.st2{fill:none;}
	.st3{fill:#E3A82B;}
	.st4{fill:url(#SVGID_1_);}
	.st5{fill:url(#SVGID_2_);}
	.st6{fill:url(#SVGID_3_);}
	.st7{fill:url(#SVGID_4_);}
	.st8{fill:url(#SVGID_5_);}
	.st9{fill:url(#SVGID_6_);}
	.st10{fill:url(#SVGID_7_);}
	.st11{fill:url(#SVGID_8_);}
	.st12{fill:url(#SVGID_9_);}
	.st13{fill:#65799E;}
</style>
<g>
	<g>
		<g>
			<g>
				<g>
					<rect x="204" y="39.5" class="st0" width="1.4" height="132.5"/>
					<rect x="204" y="39.5" class="st0" width="1.4" height="132.5"/>
				</g>
			</g>
			<g>
				<g>
					<path class="st1" d="M60.9,160.7c0-1.3-0.1-1.7-0.9-1.7l-0.6-0.1c-0.1-0.1-0.1-0.4,0-0.4c1-0.1,2.2-0.1,3.9-0.1
						c1.1,0,2.2,0.1,3,0.5c0.8,0.4,1.4,1.1,1.4,2.2c0,1.3-0.8,2-1.8,2.5c0,0.2,0.1,0.2,0.3,0.3c1,0.2,2.4,1.1,2.4,3
						c0,2.1-1.5,3.5-4.8,3.5c-0.5,0-1.4-0.1-2.1-0.1c-0.8,0-1.4,0-2.1,0.1c-0.1-0.1-0.1-0.3,0-0.4l0.3-0.1c0.9-0.2,1-0.4,1-2.2
						V160.7z M62.3,163.1c0,0.5,0,0.5,0.9,0.5c1.8-0.1,2.8-0.6,2.8-2.3c0-1.8-1.3-2.4-2.7-2.4c-0.4,0-0.7,0-0.8,0.1
						c-0.2,0.1-0.3,0.1-0.3,0.5V163.1z M62.3,167.3c0,0.6,0,1.6,0.4,2c0.3,0.4,0.9,0.5,1.4,0.5c1.6,0,2.8-0.7,2.8-2.5
						c0-1.4-0.7-3.1-3.6-3.1c-1,0-1,0.1-1,0.5V167.3z"/>
					<path class="st1" d="M72.3,159.7c1.3-1,3-1.5,4.8-1.5c1,0,2.3,0.2,3.2,0.4c0.2,0.1,0.3,0.1,0.5,0.1c0,0.4,0.1,1.5,0.3,2.6
						c-0.1,0.1-0.4,0.1-0.5,0c-0.3-1.2-1.1-2.6-3.7-2.6c-2.7,0-5.1,1.7-5.1,5.4c0,3.8,2.4,5.8,5.3,5.8c2.3,0,3.3-1.5,3.7-2.6
						c0.1-0.1,0.4-0.1,0.5,0.1c-0.1,0.9-0.6,2.1-0.9,2.5c-0.2,0-0.4,0.1-0.6,0.2c-0.4,0.1-1.7,0.4-2.8,0.4c-1.6,0-3.2-0.3-4.5-1.2
						c-1.4-1-2.5-2.6-2.5-4.9C70,162.4,70.9,160.7,72.3,159.7"/>
					<path class="st1" d="M89.6,167.5c0,1.9,0,2.1,1.2,2.2l0.5,0.1c0.1,0.1,0.1,0.4,0,0.4c-1,0-1.6-0.1-2.3-0.1
						c-0.8,0-1.4,0-2.2,0.1c-0.1-0.1-0.1-0.3,0-0.4l0.4-0.1c1-0.1,1.1-0.4,1.1-2.2v-6.6c0-1.5,0-1.8-0.8-1.9l-0.6-0.1
						c-0.1-0.1-0.1-0.4,0-0.4c0.9-0.1,2.1-0.1,3.5-0.1c1.5,0,2.6,0.2,3.4,0.7c0.8,0.5,1.4,1.4,1.4,2.7c0,1.6-1,2.5-1.8,2.8
						c-0.8,0.4-1.7,0.5-2.5,0.5c-0.1-0.1-0.1-0.3,0-0.4c1.9-0.4,2.6-1.5,2.6-3c0-1.7-1-2.9-2.9-2.9c-0.9,0-1,0.1-1,0.6V167.5z"/>
					<path class="st1" d="M97.8,167.6c0,1.2,0.3,2.1,1.7,2.1c0.5,0,1.1-0.2,1.5-0.5c0.2-0.2,0.4-0.5,0.4-1v-2.9
						c0-1.2-0.1-1.2-0.7-1.4l-0.2-0.1c-0.1-0.1-0.1-0.3,0-0.4c0.7,0,1.7-0.1,2.1-0.3c0.1,0,0.1,0.1,0.2,0.1c0,0.3-0.1,0.9-0.1,1.6v3
						c0,1.4,0.1,2,0.6,2c0.2,0,0.4,0,0.7-0.1c0.1,0.1,0.1,0.4,0,0.5c-0.7,0.1-1.7,0.3-2.3,0.7c-0.1,0-0.2-0.1-0.2-0.1v-0.7
						c0-0.2-0.1-0.3-0.2-0.3c-0.5,0.3-1.4,0.9-2.5,0.9c-1.6,0-2.2-0.8-2.2-2.2v-3c0-1.1,0-1.3-0.5-1.5l-0.2-0.1
						c-0.1-0.1-0.1-0.3,0-0.4c0.8,0,1.5-0.2,1.9-0.3c0.1,0,0.2,0.1,0.2,0.1c0,0.3-0.1,0.7-0.1,1.6V167.6z"/>
					<path class="st1" d="M105.3,160.1c0-1.1,0-1.2-0.6-1.5l-0.2-0.1c-0.1-0.1-0.1-0.3,0-0.4c0.4-0.2,1.3-0.4,2-0.8
						c0.1,0,0.1,0,0.2,0.1c0,0.6-0.1,1.4-0.1,2.2v3.4c0,0.3,0.1,0.4,0.2,0.4c0.5-0.3,1.2-0.6,2.1-0.6c2,0,3.4,1.5,3.4,3.5
						c0,2.4-1.7,4-4.1,4c-0.7,0-1.2-0.1-1.5-0.2c-0.4-0.1-0.6-0.2-0.8-0.2c-0.1,0-0.3,0.1-0.4,0.3c0,0,0,0-0.1,0
						c-0.1,0-0.1,0-0.2-0.1c0-0.2,0-0.6,0-1.5V160.1z M106.6,167.8c0,0.6,0.1,1.2,0.4,1.6c0.3,0.4,0.8,0.6,1.4,0.6
						c1.7,0,2.3-1.4,2.3-3c0-1.8-0.9-3.3-2.7-3.3c-0.5,0-1,0.1-1.2,0.3c-0.2,0.1-0.2,0.3-0.2,1V167.8z"/>
					<path class="st1" d="M115.6,168.2c0,1.3,0,1.5,0.7,1.6l0.4,0.1c0.1,0.1,0.1,0.4,0,0.4c-0.6,0-1.1-0.1-1.7-0.1
						c-0.6,0-1.2,0-1.7,0.1c-0.1-0.1-0.2-0.4,0-0.4l0.4-0.1c0.7-0.1,0.7-0.3,0.7-1.6v-8.1c0-1.1,0-1.2-0.6-1.5l-0.2-0.1
						c-0.1-0.1-0.1-0.3,0-0.4c0.4-0.1,1.3-0.4,1.9-0.8c0.1,0,0.1,0,0.2,0.1c0,0.5-0.1,1.4-0.1,2.2V168.2z"/>
					<path class="st1" d="M118.7,165.1c0-0.7,0-0.8-0.5-1.1l-0.2-0.1c-0.1-0.1-0.1-0.3,0-0.3c0.4-0.1,1.4-0.6,1.8-0.9
						c0.1,0,0.2,0,0.2,0.1c0,0.6-0.1,1.5-0.1,2.2v3.2c0,1.3,0,1.5,0.7,1.6l0.4,0.1c0.1,0.1,0.1,0.4,0,0.4c-0.5,0-1.1-0.1-1.7-0.1
						c-0.6,0-1.2,0-1.7,0.1c-0.1-0.1-0.2-0.4,0-0.4l0.4-0.1c0.7-0.1,0.7-0.3,0.7-1.6V165.1z M120.2,160c0,0.6-0.4,0.9-0.9,0.9
						c-0.6,0-0.9-0.4-0.9-0.9c0-0.6,0.4-1,1-1C119.8,159.1,120.2,159.5,120.2,160"/>
					<path class="st1" d="M127.9,163.2c0.1,0.1,0.3,0.4,0.3,0.7c0,0.3-0.2,0.7-0.4,0.7c-0.1,0-0.2,0-0.3-0.1
						c-0.4-0.5-1.1-0.9-1.8-0.9c-1.3,0-2.5,1-2.5,2.9c0,1.4,1,3.1,2.9,3.1c1,0,1.6-0.5,2-1.1c0.1,0,0.3,0.1,0.3,0.3
						c-0.6,1.3-2,1.8-3,1.8c-1,0-1.8-0.3-2.5-0.9c-0.6-0.6-1-1.5-1-2.7c0-1.9,1.4-4,4.3-4C126.8,162.9,127.5,163,127.9,163.2"/>
					<path class="st1" d="M136.7,170.5c-1.5,0-2.5-0.5-2.8-0.7c-0.2-0.4-0.4-1.7-0.5-2.5c0.1-0.1,0.4-0.2,0.4-0.1
						c0.3,0.9,1,2.7,3.1,2.7c1.5,0,2.2-1,2.2-2.1c0-0.8-0.2-1.7-1.5-2.5l-1.7-1.1c-0.9-0.6-1.9-1.6-1.9-3.1c0-1.7,1.3-3.1,3.7-3.1
						c0.6,0,1.2,0.1,1.7,0.2c0.2,0.1,0.5,0.1,0.6,0.1c0.2,0.4,0.3,1.4,0.3,2.2c-0.1,0.1-0.4,0.2-0.4,0.1c-0.2-0.9-0.7-2-2.4-2
						c-1.8,0-2.1,1.2-2.1,2c0,1,0.9,1.8,1.5,2.2l1.4,0.9c1.1,0.7,2.2,1.7,2.2,3.4C140.5,169.2,139,170.5,136.7,170.5"/>
					<path class="st1" d="M143.3,165.7c-0.5,0-0.5,0-0.5,0.5c0,1.8,1.1,3.3,3,3.3c0.6,0,1.1-0.2,1.6-0.9c0.2-0.1,0.3,0.1,0.3,0.2
						c-0.6,1.2-1.9,1.7-2.8,1.7c-1.2,0-2.1-0.5-2.6-1.2c-0.5-0.7-0.8-1.5-0.8-2.3c0-2.2,1.4-4,3.6-4c1.5,0,2.5,1.1,2.5,2.1
						c0,0.2,0,0.4-0.1,0.5c-0.1,0.1-0.3,0.1-1.1,0.1H143.3z M144.4,165.1c1.3,0,1.7-0.1,1.9-0.2c0.1,0,0.1-0.1,0.1-0.3
						c0-0.5-0.3-1.1-1.4-1.1c-1.1,0-2,1-2,1.6c0,0,0,0.1,0.1,0.1H144.4z"/>
					<path class="st1" d="M149.7,165.1c0-0.7,0-0.8-0.5-1.1l-0.2-0.1c-0.1-0.1-0.1-0.3,0-0.3c0.4-0.1,1.4-0.6,1.8-0.9
						c0.1,0,0.1,0.1,0.1,0.1v1c0,0.1,0,0.1,0.1,0.2c0.6-0.5,1.3-1.1,2-1.1c0.4,0,0.8,0.3,0.8,0.7c0,0.6-0.5,0.8-0.8,0.8
						c-0.2,0-0.3-0.1-0.4-0.1c-0.3-0.2-0.5-0.3-0.8-0.3c-0.3,0-0.5,0.2-0.6,0.4c-0.2,0.3-0.2,0.8-0.2,1.4v2.4c0,1.3,0,1.5,0.7,1.6
						l0.6,0.1c0.1,0.1,0.1,0.4,0,0.4c-0.8,0-1.4-0.1-2-0.1c-0.6,0-1.2,0-1.6,0.1c-0.1-0.1-0.2-0.4,0-0.4l0.3-0.1
						c0.7-0.1,0.7-0.3,0.7-1.6V165.1z"/>
					<path class="st1" d="M155.5,165c-0.3-0.7-0.4-1.2-1.1-1.3l-0.4-0.1c-0.1-0.1-0.1-0.4,0.1-0.4c0.4,0,1.1,0.1,1.7,0.1
						c0.5,0,0.8,0,1.5-0.1c0.1,0.1,0.1,0.4,0,0.4l-0.2,0c-0.6,0.1-0.6,0.2-0.4,0.7c0.4,1.2,0.9,2.5,1.3,3.4c0.2,0.4,0.2,0.5,0.3,0.6
						c0.1-0.1,0.2-0.3,0.3-0.7c0.2-0.6,0.8-2.2,1-2.6c0.2-0.6,0.3-1,0.3-1.1c0-0.2-0.1-0.2-0.3-0.3l-0.4-0.1c-0.1-0.1-0.1-0.4,0-0.4
						c0.6,0,1,0.1,1.3,0.1c0.4,0,0.8,0,1.3-0.1c0.1,0.1,0.1,0.3,0,0.4l-0.3,0c-0.6,0.1-0.8,0.6-1.3,1.6c-0.3,0.5-1.4,3.1-1.6,3.8
						c-0.2,0.4-0.4,0.9-0.6,1.5c0,0.1-0.1,0.1-0.2,0.1c-0.1,0-0.2,0-0.2-0.1c-0.1-0.5-0.4-1.2-0.7-1.9L155.5,165z"/>
					<path class="st1" d="M163.3,165.1c0-0.7,0-0.8-0.5-1.1l-0.2-0.1c-0.1-0.1-0.1-0.3,0-0.3c0.4-0.1,1.4-0.6,1.8-0.9
						c0.1,0,0.2,0,0.2,0.1c0,0.6-0.1,1.5-0.1,2.2v3.2c0,1.3,0,1.5,0.7,1.6l0.4,0.1c0.1,0.1,0.1,0.4,0,0.4c-0.5,0-1.1-0.1-1.7-0.1
						c-0.6,0-1.2,0-1.7,0.1c-0.1-0.1-0.2-0.4,0-0.4l0.4-0.1c0.7-0.1,0.7-0.3,0.7-1.6V165.1z M164.8,160c0,0.6-0.4,0.9-0.9,0.9
						c-0.6,0-0.9-0.4-0.9-0.9c0-0.6,0.4-1,1-1C164.4,159.1,164.8,159.5,164.8,160"/>
					<path class="st1" d="M172.6,163.2c0.1,0.1,0.3,0.4,0.3,0.7c0,0.3-0.2,0.7-0.4,0.7c-0.1,0-0.2,0-0.2-0.1
						c-0.4-0.5-1.1-0.9-1.8-0.9c-1.3,0-2.5,1-2.5,2.9c0,1.4,1,3.1,2.9,3.1c1,0,1.6-0.5,2-1.1c0.1,0,0.3,0.1,0.3,0.3
						c-0.6,1.3-2,1.8-3,1.8c-0.9,0-1.8-0.3-2.5-0.9c-0.6-0.6-1-1.5-1-2.7c0-1.9,1.4-4,4.3-4C171.4,162.9,172.1,163,172.6,163.2"/>
					<path class="st1" d="M175.3,165.7c-0.5,0-0.5,0-0.5,0.5c0,1.8,1.1,3.3,3,3.3c0.6,0,1.1-0.2,1.6-0.9c0.2-0.1,0.3,0.1,0.3,0.2
						c-0.6,1.2-1.9,1.7-2.8,1.7c-1.2,0-2.1-0.5-2.6-1.2c-0.5-0.7-0.8-1.5-0.8-2.3c0-2.2,1.5-4,3.6-4c1.5,0,2.5,1.1,2.5,2.1
						c0,0.2,0,0.4-0.1,0.5c-0.1,0.1-0.3,0.1-1.1,0.1H175.3z M176.4,165.1c1.3,0,1.7-0.1,1.9-0.2c0.1,0,0.1-0.1,0.1-0.3
						c0-0.5-0.3-1.1-1.4-1.1c-1.1,0-2,1-2,1.6c0,0,0,0.1,0.1,0.1H176.4z"/>
				</g>
			</g>
			<g>
				<path class="st1" d="M297,130.3c0-4.2-0.1-4.6-2.2-5.9l-0.7-0.4c-0.4-0.2-0.4-1.2,0-1.4c1.8-0.6,5.1-1.6,7.7-3
					c0.3,0,0.6,0.1,0.7,0.4c-0.1,2.1-0.2,5.7-0.2,8.9v15c0,0.6,0.1,1.2,0.3,1.4c2.6-2,6-3.7,9.6-3.7c6.8,0,9.2,4.2,9.2,9.2v11.9
					c0,5.1,0.1,5.9,2.7,6.2l1.9,0.2c0.5,0.4,0.4,1.6-0.1,1.8c-2.6-0.1-4.6-0.2-7.1-0.2c-2.6,0-4.7,0.1-6.6,0.2
					c-0.5-0.2-0.6-1.4-0.1-1.8l1.4-0.2c2.6-0.4,2.7-1.1,2.7-6.2v-10.2c0-4.6-2.2-7.6-6.8-7.6c-2.4,0-4.3,0.9-5.6,1.9
					c-1.3,1.1-1.5,1.4-1.5,3.9v12c0,5.1,0.1,5.9,2.7,6.2l1.5,0.2c0.5,0.3,0.4,1.6-0.1,1.8c-2.1-0.1-4.2-0.2-6.7-0.2
					c-2.6,0-4.7,0.1-7,0.2c-0.5-0.2-0.6-1.4-0.1-1.8l1.8-0.2c2.6-0.3,2.7-1.1,2.7-6.2V130.3z"/>
				<path class="st1" d="M333.3,152.3c-1.9,0-1.9,0.1-1.9,1.9c0,7.2,4.2,13.4,11.9,13.4c2.4,0,4.4-0.7,6.6-3.5
					c0.7-0.2,1.2,0.2,1.3,0.9c-2.4,4.9-7.5,6.6-11.2,6.6c-4.6,0-8.3-2-10.4-4.7c-2.1-2.8-3-6.1-3-9.3c0-8.8,5.8-16.1,14.4-16.1
					c6.1,0,10.1,4.2,10.1,8.5c0,1-0.1,1.6-0.3,1.9c-0.2,0.4-1.2,0.5-4.2,0.5H333.3z M337.7,150.1c5.3,0,6.9-0.3,7.4-0.7
					c0.2-0.1,0.4-0.4,0.4-1.4c0-2-1.4-4.5-5.5-4.5c-4.2,0-7.9,3.9-7.9,6.2c0,0.1,0,0.4,0.5,0.4H337.7z"/>
				<path class="st1" d="M357.5,150c0-2.8,0-3.1-1.9-4.4l-0.6-0.4c-0.3-0.3-0.3-1.1,0.1-1.3c1.6-0.6,5.4-2.4,7.2-3.5
					c0.4,0.1,0.6,0.2,0.6,0.5v4.1c0,0.4,0.1,0.6,0.2,0.6c2.5-2.1,5.2-4.3,7.9-4.3c1.8,0,3.2,1.1,3.2,2.9c0,2.4-1.9,3.3-3.1,3.3
					c-0.7,0-1.1-0.2-1.6-0.5c-1.1-0.7-2.1-1.1-3.1-1.1c-1.1,0-2,0.6-2.6,1.4c-0.7,1-0.9,3.1-0.9,5.5v9.7c0,5.1,0.1,6,2.9,6.2
					l2.6,0.2c0.5,0.4,0.4,1.6-0.1,1.8c-3.4-0.1-5.4-0.2-7.9-0.2c-2.6,0-4.7,0.1-6.6,0.2c-0.5-0.2-0.6-1.4-0.1-1.8l1.4-0.2
					c2.6-0.4,2.7-1.1,2.7-6.2V150z"/>
				<path class="st1" d="M381,152.3c-1.9,0-1.9,0.1-1.9,1.9c0,7.2,4.2,13.4,11.9,13.4c2.4,0,4.4-0.7,6.6-3.5
					c0.7-0.2,1.2,0.2,1.3,0.9c-2.4,4.9-7.5,6.6-11.2,6.6c-4.6,0-8.3-2-10.4-4.7c-2.1-2.8-3-6.1-3-9.3c0-8.8,5.8-16.1,14.4-16.1
					c6.1,0,10.1,4.2,10.1,8.5c0,1-0.1,1.6-0.3,1.9c-0.2,0.4-1.2,0.5-4.2,0.5H381z M385.4,150.1c5.3,0,6.9-0.3,7.4-0.7
					c0.2-0.1,0.4-0.4,0.4-1.4c0-2-1.4-4.5-5.5-4.5c-4.2,0-7.9,3.9-7.9,6.2c0,0.1,0,0.4,0.5,0.4H385.4z"/>
				<path class="st1" d="M417.4,150c0-2.8,0-3.1-1.9-4.4l-0.6-0.4c-0.3-0.3-0.3-1.1,0.1-1.3c1.6-0.6,5.7-2.4,7.4-3.5
					c0.4,0,0.6,0.1,0.7,0.4c-0.1,2.5-0.3,5.9-0.3,8.9v12.9c0,5.1,0.1,5.9,2.7,6.2l1.5,0.2c0.5,0.4,0.4,1.6-0.1,1.8
					c-2.1-0.1-4.2-0.2-6.7-0.2c-2.6,0-4.7,0.1-6.7,0.2c-0.5-0.2-0.6-1.4-0.1-1.8l1.5-0.2c2.6-0.4,2.7-1.1,2.7-6.2V150z M423.3,129.7
					c0,2.6-1.8,3.7-3.8,3.7c-2.2,0-3.6-1.6-3.6-3.6c0-2.4,1.7-3.9,3.9-3.9C421.9,126,423.3,127.7,423.3,129.7z"/>
				<path class="st1" d="M456.3,160.1c0,5.6,0.1,8.3,2.1,8.3c0.8,0,2-0.4,3.1-0.7c0.5,0.1,0.6,1.9-0.1,2.3c-3,0.4-7.4,1.5-9.4,2.3
					c-0.4,0-0.8-0.2-0.8-0.6v-1.2c0-1.1,0-1.9-0.1-2.2h-0.3c-3.1,2.1-5.6,3.3-9,3.3c-7.9,0-13.2-6.2-13.2-13.7
					c0-10,7.6-16.4,17.3-16.4c2.4,0,4,0.4,4.8,0.6c0.4,0,0.4-0.4,0.4-1v-10.8c0-4.2-0.1-4.6-2.2-5.9l-0.7-0.4
					c-0.4-0.2-0.4-1.2,0-1.4c1.8-0.6,5.1-1.6,7.7-3c0.3,0,0.6,0.1,0.7,0.4c-0.1,2.1-0.2,5.7-0.2,8.9V160.1z M451,149.4
					c0-1.4-0.3-2.1-0.8-2.8c-1.1-1.5-3.2-3-6-3c-6.5,0-9.9,5.6-9.9,11.9c0,6.5,3.6,12.6,10.6,12.6c1.9,0,4.4-0.9,5.5-2
					c0.4-0.4,0.5-1.5,0.5-2.6V149.4z"/>
				<path class="st1" d="M469.1,152.3c-1.9,0-1.9,0.1-1.9,1.9c0,7.2,4.2,13.4,11.9,13.4c2.4,0,4.4-0.7,6.6-3.5
					c0.7-0.2,1.2,0.2,1.3,0.9c-2.4,4.9-7.5,6.6-11.2,6.6c-4.6,0-8.3-2-10.4-4.7c-2.1-2.8-3-6.1-3-9.3c0-8.8,5.8-16.1,14.4-16.1
					c6.1,0,10.1,4.2,10.1,8.5c0,1-0.1,1.6-0.3,1.9c-0.2,0.4-1.2,0.5-4.2,0.5H469.1z M473.5,150.1c5.3,0,6.9-0.3,7.4-0.7
					c0.2-0.1,0.4-0.4,0.4-1.4c0-2-1.4-4.5-5.5-4.5c-4.2,0-7.9,3.9-7.9,6.2c0,0.1,0,0.4,0.5,0.4H473.5z"/>
				<path class="st1" d="M503.2,155.8c1.1-0.4,1.2-1,1.2-2.1l0.1-3.3c0.1-2.6-0.8-6.2-5.2-6.2c-2,0-4.4,1-4.6,3.2
					c-0.1,1.1-0.1,2-0.7,2.4c-1.1,0.9-3,1.4-4.1,1.4c-0.6,0-1-0.4-1-1c0-3.7,8.1-8.8,13.3-8.8c5.1,0,7.6,3,7.4,8.4l-0.4,12.4
					c-0.1,3.3,0.5,6.2,3.3,6.2c0.7,0,1.4-0.2,1.8-0.4c0.4-0.2,0.7-0.5,0.9-0.5c0.3,0,0.5,0.4,0.5,0.9c0,0.4-2.5,3.1-6,3.1
					c-1.7,0-3.4-0.6-4.6-2.2c-0.3-0.4-0.7-1-1.1-1c-0.5,0-1.4,0.6-2.8,1.4c-1.6,0.9-3.1,1.8-5.1,1.8c-2.1,0-3.8-0.6-5-1.6
					c-1.4-1.2-2.2-3-2.2-5c0-2.8,1.4-4.4,5.9-6.1L503.2,155.8z M498.8,168.3c1.4,0,3.6-1.1,4.4-1.8c0.9-0.9,0.9-1.9,0.9-3.4l0.1-4.2
					c0-0.8-0.3-0.9-0.7-0.9c-0.4,0-1.6,0.3-2.9,0.7c-4.2,1.4-6.3,2.5-6.3,5.3C494.3,165.3,495.2,168.3,498.8,168.3z"/>
				<path class="st1" d="M534.4,142.7c0.6,1.6,1.1,3.9,1.1,5.8c-0.3,0.5-1.4,0.6-1.7,0.2c-1.2-3.1-3.4-5.2-6.3-5.2
					c-2.8,0-4.6,1.8-4.6,4.4c0,2.9,3,4.5,5.5,5.9c3.8,2.1,7.3,4.6,7.3,9.6c0,5.4-5,8.1-10.3,8.1c-3.4,0-5.9-0.7-7.6-2.1
					c-0.6-1.4-1-4.9-0.9-7.2c0.4-0.4,1.3-0.5,1.6-0.1c1.2,3.9,3.5,7.4,7.6,7.4c2.6,0,4.8-1.5,4.8-4.6c0-3.3-2.9-5.1-5.5-6.6
					c-4.1-2.4-7.1-4.9-7.1-8.8c0-5.2,4.3-8.1,9.7-8.1C531.1,141.4,533.8,142.1,534.4,142.7z"/>
				<path class="st1" d="M554.7,149.3c-1.6-4-2.5-4.7-4.3-5.1l-1.1-0.3c-0.4-0.4-0.4-1.4,0.2-1.7c2.2,0.1,4.2,0.2,6.4,0.2
					c2.2,0,4.3-0.1,6.2-0.2c0.6,0.3,0.6,1.4,0.1,1.7l-1.6,0.3c-1,0.1-1.6,0.6-1.6,1c0,0.4,0.4,1.8,1.1,3.7l4.4,10.9
					c0.6,1.6,1.3,2.9,1.3,3.1c0.2-0.1,0.8-1.4,1.6-3.4l3.5-8.6c0.9-2.3,1-3.2,0.6-4.1c-0.6-1.6-1.7-2.1-3.3-2.5l-1.1-0.3
					c-0.5-0.4-0.4-1.5,0.2-1.7c1.8,0.1,4.1,0.2,5.9,0.2c2.2,0,4.4-0.1,6.8-0.2c0.6,0.2,0.6,1.4,0.2,1.7l-1.5,0.3
					c-2.9,0.6-2.7,0.8-1.9,3.3c0.8,2.4,4.6,11.4,5.4,13.4c0.4,1.1,0.7,1.9,0.9,2c0.1-0.1,0.5-0.9,1-2c0.9-2.1,3.8-9.6,4.9-12.6
					c0.6-1.6,0.7-2.6,0.7-3.1c0-0.4-0.4-0.8-1.3-0.9l-1.8-0.3c-0.6-0.4-0.4-1.5,0.1-1.7c2.1,0.1,3.9,0.2,5.6,0.2
					c1.4,0,3.1-0.1,4.6-0.2c0.6,0.3,0.6,1.4,0.2,1.7l-1.4,0.3c-1.7,0.4-2.4,1.4-3.9,4.5c-1.9,4-5.4,12.6-6.7,16.2
					c-1,2.6-1.9,4.6-2.4,6.5c-0.3,0.2-0.6,0.3-0.9,0.3c-0.3,0-0.6-0.1-0.8-0.3c-0.4-1.3-1.7-5-2.9-7.9l-3.4-8.2
					c-0.5-1.3-1.6-3.6-1.6-3.6c-0.1,0-1.1,2.2-1.6,3.5l-3.7,8.9c-1.3,3.1-2.3,5.6-2.9,7.3c-0.2,0.2-0.5,0.3-0.9,0.3
					c-0.3,0-0.6-0.1-0.9-0.3c-0.4-1.5-1.6-4.4-2.1-5.9L554.7,149.3z"/>
				<path class="st1" d="M625.2,156.2c0,8.9-6.1,15.4-15.1,15.4c-8.2,0-14.6-5.8-14.6-14.7c0-9,6.8-15.4,15.2-15.4
					C618.7,141.4,625.2,147.4,625.2,156.2z M609.8,143.5c-4.7,0-8.2,4.5-8.2,12.4c0,6.5,2.9,13.5,9.2,13.5c6.3,0,8.2-6.6,8.2-12.1
					C619,151.3,616.6,143.5,609.8,143.5z"/>
				<path class="st1" d="M631.2,150c0-2.8,0-3.1-1.9-4.4l-0.6-0.4c-0.3-0.3-0.3-1.1,0.1-1.3c1.6-0.6,5.4-2.4,7.2-3.5
					c0.4,0.1,0.6,0.2,0.6,0.5v4.1c0,0.4,0.1,0.6,0.2,0.6c2.5-2.1,5.2-4.3,7.9-4.3c1.8,0,3.2,1.1,3.2,2.9c0,2.4-1.9,3.3-3.1,3.3
					c-0.7,0-1.1-0.2-1.6-0.5c-1.1-0.7-2.1-1.1-3.1-1.1c-1.1,0-2,0.6-2.6,1.4c-0.7,1-0.9,3.1-0.9,5.5v9.7c0,5.1,0.1,6,2.9,6.2
					l2.6,0.2c0.5,0.4,0.4,1.6-0.1,1.8c-3.4-0.1-5.4-0.2-7.9-0.2c-2.6,0-4.7,0.1-6.6,0.2c-0.5-0.2-0.6-1.4-0.1-1.8l1.4-0.2
					c2.6-0.4,2.7-1.1,2.7-6.2V150z"/>
				<path class="st1" d="M651.9,130.3c0-4.2-0.1-4.6-2.2-5.9l-0.7-0.4c-0.4-0.2-0.4-1.2,0-1.4c1.8-0.6,5.1-1.6,7.7-3
					c0.3,0,0.6,0.1,0.7,0.4c-0.1,2.1-0.2,5.7-0.2,8.9v24.5c0,0.9,0.1,1.1,1.3,1.1c1.6,0,2.9-0.8,4.9-2.8l2.9-3.1
					c2-2.1,2.5-2.9,2.5-3.3c0-0.4-0.4-0.6-1.6-0.7l-1.7-0.2c-0.6-0.2-0.6-1.6,0-1.8h1.6c3.1,0,7.4-0.1,11.4-0.6
					c0.5,0.2,0.6,1.4,0.1,1.8l-2.3,0.4c-1.4,0.3-2.6,1-4.5,2.5c-2.8,2.2-5.2,4.8-6.5,6c-0.9,0.8-0.9,1.1-0.5,1.7
					c1.2,1.6,2.4,3,4.8,5.7c2.8,3.1,5.3,5.9,6.7,7.3c1,0.9,2.4,1.4,3.7,1.6l1,0.1c0.5,0.4,0.4,1.6-0.1,1.8c-2.1-0.1-4.5-0.2-6.8-0.2
					c-2.9,0-5.4,0.1-7.4,0.2c-0.6-0.3-0.6-1.5-0.1-1.8l1.3-0.2c1.1-0.1,1.8-0.3,1.8-0.7c0-0.4-0.3-0.9-1.2-2l-7.6-8.9
					c-0.6-0.7-1.4-1-2.2-1c-1.3,0-1.4,0.2-1.4,2.4v3.9c0,5.1,0.1,5.9,2.7,6.2l1.7,0.2c0.5,0.4,0.4,1.6-0.1,1.8
					c-2.4-0.1-4.4-0.2-6.9-0.2c-2.6,0-4.7,0.1-6.9,0.2c-0.5-0.2-0.6-1.4-0.1-1.8l1.6-0.2c2.6-0.4,2.7-1.1,2.7-6.2V130.3z"/>
			</g>
		</g>
		<path class="st1" d="M291.9,122.7c-1.7,0.1-3.6,0.2-6.1,0.2c-2,0-3.8-0.1-6.3-0.2c-0.5,0.3-0.6,1.1-0.1,1.7l1.9,0.1
			c1.4,0.1,2.2,0.6,2.2,1.6c0,0.4-0.2,1.3-0.5,2.3l0,0c0,0.2-0.1,0.3-0.1,0.5c0,0,0,0,0,0.1h0c-1.4,4.7-0.8,2.8-1.9,6.4
			c-2,6.5-6,18.8-7.6,23.5c-0.3,0.9-0.4,1.1-0.9,0.1c-1.9-4.9-7.6-20.8-9.4-26.6c-0.3-1.1-1.2-3.9-1.3-4.1c-1.1-3.3-0.7-3.5,1.9-3.8
			l1.7-0.1c0.4-0.6,0.3-1.5-0.1-1.7c-1.5,0.1-4.6,0.2-7.9,0.2c-2.6,0-4.8-0.1-6.7-0.2c-0.5,0.3-0.6,1.1-0.1,1.7l1.6,0.1
			c2.2,0.2,3.2,1.7,4.2,3.9c0.5,1.2,0.8,2.1,1.3,3.7c0.3,0.9,0.4,1.3-0.3,3.3c-5.2,15-5.9,17.2-8.2,23.6c-0.3,0.9-0.5,0.5-0.9-0.5
			c-2.4-6.4-8.6-24.9-9.5-27.8c-0.4-1.2-0.9-3-0.9-3c-0.3-1-0.5-1.6-0.5-1.9c0-0.6,0.8-1.1,2.2-1.2l1.5-0.1c0.4-0.5,0.5-1.5-0.1-1.7
			c-2.3,0.1-6.4,0.2-8.2,0.2c-2,0-5-0.1-6.8-0.2c-0.5,0.3-0.6,1.3-0.2,1.7l1.6,0.1c2.2,0.2,3.1,1.4,4,3.4l0.1,0.2
			c1.4,3.2,2.4,5.6,3.8,9.9c1.4,4.1,10.7,32.1,10.9,32.6c0.3,0.2,0.6,0.2,1,0.2c0.3,0,0.6-0.1,0.8-0.2c0.4-1.2,1.5-4.3,1.7-4.7
			c3.2-9.4,8.3-24.3,9.1-26.5c0.4-1,0.6-0.9,1,0.2c2,5.9,6.7,18.7,9.4,27.5h0c0,0.2,0.9,3,1.1,3.5c0.3,0.2,1,0.2,1.4,0.2
			c0.4,0,0.7-0.1,0.9-0.2c0.2-0.5,3-9.6,3.6-11.4c3-8.4,8-23.6,9.2-27.4c0.3-1.1,0.7-2.1,1-2.9c1.4-3.1,2.5-4,4.6-4.3l1.3-0.1
			C292.5,123.8,292.5,122.9,291.9,122.7z"/>
	</g>
	<g>
		<rect class="st2" width="712.4" height="209.6"/>
		<g>
			<g>
				<g>
					<path class="st2" d="M119.4,86.6c0,0.1,0.1,0.1,0.1,0.1c0.1,0,0.1-0.1,0.1-0.1c0-0.1-0.1-0.1-0.1-0.1
						C119.5,86.4,119.4,86.5,119.4,86.6z"/>
					<path class="st1" d="M73.9,109.8c0-2-0.1-2.5-1.5-2.6l-0.9-0.1c-0.1-0.1-0.1-0.6,0-0.7c1.6-0.1,3.6-0.2,6.3-0.2
						c1.8,0,3.6,0.1,4.9,0.7c1.3,0.6,2.2,1.6,2.2,3.3c0,1.9-1.2,2.9-3,3.6c0,0.3,0.2,0.3,0.6,0.4c1.6,0.3,3.9,1.6,3.9,4.4
						c0,3.1-2.5,5.1-7.8,5.1c-0.8,0-2.3-0.1-3.5-0.1c-1.3,0-2.3,0.1-3.4,0.1c-0.2-0.1-0.2-0.5-0.1-0.7l0.5-0.1
						c1.6-0.2,1.6-0.5,1.6-3.3V109.8z M76.3,113.3c0,0.7,0,0.8,1.5,0.7c3-0.1,4.6-0.9,4.6-3.4c0-2.6-2.1-3.6-4.4-3.6
						c-0.6,0-1.1,0.1-1.3,0.2c-0.3,0.1-0.4,0.2-0.4,0.7V113.3z M76.3,119.4c0,0.9,0.1,2.3,0.6,2.9c0.6,0.6,1.4,0.7,2.3,0.7
						c2.6,0,4.6-1.1,4.6-3.7c0-2.1-1.2-4.5-5.8-4.5c-1.6,0-1.7,0.2-1.7,0.7V119.4z"/>
					<path class="st1" d="M106.8,112.4c0-2.4-0.1-2.8-1.5-2.9l-0.6,0c-0.2-0.1-0.1-0.5,0-0.6c1.3,0,2.1,0.1,3.2,0.1
						c1,0,1.9,0,3.1-0.1c0.2,0.1,0.2,0.5,0.1,0.6l-0.6,0c-1.5,0.1-1.5,0.5-1.5,2.9v8c0,2.4,0,2.7,1.5,2.9l0.6,0.1
						c0.1,0.1,0.1,0.5-0.1,0.6c-1.3,0-2.1-0.1-3.1-0.1c-1.1,0-1.9,0-3.2,0.1c-0.1-0.1-0.2-0.4,0-0.6l0.6-0.1
						c1.5-0.2,1.5-0.5,1.5-2.9V112.4z"/>
					<path class="st1" d="M120.7,120.4c0,2.4,0,2.7,1.4,2.8l0.8,0.1c0.1,0.1,0.1,0.5,0,0.6c-1.3,0-2.1-0.1-3.1-0.1
						c-0.9,0-1.8,0-3.3,0.1c-0.1-0.1-0.2-0.5,0-0.6l0.8-0.1c1.3-0.1,1.5-0.5,1.5-2.8v-10.1c0-0.7,0-0.7-0.7-0.7h-1.3
						c-1,0-2.3,0-2.9,0.6c-0.6,0.5-0.8,1-1.1,1.6c-0.2,0.1-0.5,0-0.6-0.2c0.4-1,0.7-2.5,0.9-3.4c0.1,0,0.4-0.1,0.4,0
						c0.1,0.7,0.9,0.7,2,0.7h9.5c1.3,0,1.5,0,1.8-0.6c0.1,0,0.4,0,0.4,0.1c-0.3,0.9-0.4,2.8-0.4,3.4c-0.1,0.2-0.5,0.2-0.6,0
						c-0.1-0.6-0.2-1.4-0.6-1.6c-0.5-0.4-1.4-0.6-2.7-0.6h-1.7c-0.7,0-0.7,0-0.7,0.8V120.4z"/>
					<path class="st1" d="M130.7,112.4c0-2.4,0-2.8-1.5-2.9l-0.6,0c-0.2-0.1-0.1-0.5,0-0.6c1.3,0,2.1,0.1,3.2,0.1c1,0,1.9,0,3.1-0.1
						c0.2,0.1,0.2,0.5,0.1,0.6l-0.6,0c-1.5,0.1-1.5,0.5-1.5,2.9v8c0,2.4,0,2.7,1.5,2.9l0.6,0.1c0.1,0.1,0.1,0.5-0.1,0.6
						c-1.2,0-2.1-0.1-3.1-0.1c-1.1,0-1.9,0-3.2,0.1c-0.1-0.1-0.2-0.4,0-0.6l0.6-0.1c1.5-0.2,1.5-0.5,1.5-2.9V112.4z"/>
					<path class="st1" d="M141.9,124.1c-2.2,0-3.6-0.6-4.1-0.8c-0.3-0.5-0.7-2.1-0.7-3.2c0.1-0.2,0.5-0.2,0.6-0.1
						c0.4,1.2,1.5,3.4,4.6,3.4c2.2,0,3.3-1.2,3.3-2.6c0-1-0.2-2.1-2.2-3.2l-2.5-1.4c-1.3-0.7-2.9-2-2.9-3.9c0-2.1,2-3.9,5.4-3.9
						c0.8,0,1.8,0.1,2.5,0.3c0.3,0.1,0.7,0.1,0.9,0.1c0.2,0.5,0.5,1.8,0.5,2.8c-0.1,0.1-0.5,0.2-0.7,0.1c-0.3-1.1-1.1-2.5-3.6-2.5
						c-2.6,0-3.2,1.5-3.2,2.5c0,1.3,1.3,2.3,2.3,2.8l2.1,1.1c1.7,0.9,3.3,2.2,3.3,4.3C147.6,122.4,145.4,124.1,141.9,124.1z"/>
					<path class="st1" d="M155.3,116.5c-1.2,0-1.2,0-1.2,0.7v3.2c0,2.4,0.1,2.7,1.5,2.8l0.7,0.1c0.1,0.1,0.1,0.5,0,0.6
						c-1.3,0-2.1-0.1-3.1-0.1c-1,0-1.9,0-2.8,0.1c-0.1-0.1-0.2-0.4,0-0.6l0.4-0.1c1.4-0.2,1.4-0.5,1.4-2.8v-8.1
						c0-2.4-0.2-2.8-1.4-2.8l-0.6,0c-0.1-0.1-0.1-0.5,0-0.6c1.2,0,2,0.1,3.1,0.1c0.9,0,1.8,0,2.8-0.1c0.1,0.1,0.2,0.5,0,0.6l-0.5,0
						c-1.4,0.1-1.5,0.5-1.5,2.8v2.6c0,0.7,0,0.7,1.2,0.7h6.9c1.2,0,1.2,0,1.2-0.7v-2.6c0-2.4,0-2.7-1.5-2.8l-0.5,0
						c-0.1-0.1-0.1-0.5,0-0.6c1.1,0,1.9,0.1,2.9,0.1c0.9,0,1.8,0,2.9-0.1c0.1,0.1,0.2,0.5,0,0.6l-0.5,0c-1.4,0.1-1.5,0.5-1.5,2.8
						v8.1c0,2.4,0,2.7,1.5,2.8l0.6,0.1c0.1,0.1,0.1,0.5,0,0.6c-1.2,0-2-0.1-2.9-0.1c-1,0-1.9,0-2.9,0.1c-0.1-0.1-0.2-0.4,0-0.6
						l0.5-0.1c1.5-0.2,1.5-0.5,1.5-2.8v-3.2c0-0.7,0-0.7-1.2-0.7H155.3z"/>
					<path class="st1" d="M60,128.8c2-1.5,4.5-2.3,7.4-2.3c1.5,0,3.6,0.3,4.8,0.7c0.3,0.1,0.5,0.1,0.8,0.1c0,0.6,0.2,2.3,0.4,4
						c-0.1,0.2-0.5,0.2-0.7,0.1c-0.4-1.8-1.6-4-5.6-4c-4.2,0-7.7,2.6-7.7,8.3c0,5.7,3.6,8.9,8.1,8.9c3.5,0,5.1-2.3,5.7-3.9
						c0.2-0.1,0.6-0.1,0.7,0.1c-0.2,1.4-0.9,3.2-1.3,3.7c-0.3,0.1-0.7,0.2-1,0.3c-0.6,0.2-2.6,0.6-4.3,0.6c-2.5,0-4.8-0.5-6.8-1.8
						c-2.2-1.5-3.9-4-3.9-7.5C56.5,133,57.9,130.4,60,128.8z"/>
					<path class="st1" d="M74.9,137.6c0-4.5,3.6-8,8.4-8c5.5,0,8.2,3.8,8.2,7.7c0,4.6-3.6,7.9-8.2,7.9
						C78.1,145.3,74.9,141.7,74.9,137.6z M89.2,138.1c0-3.7-1.7-7.7-6.2-7.7c-2.5,0-5.7,1.6-5.7,6.5c0,3.3,1.7,7.7,6.4,7.7
						C86.5,144.6,89.2,142.6,89.2,138.1z"/>
					<path class="st1" d="M118.2,135.7c0-1.4,0-4-0.5-4.7c-0.2-0.3-0.6-0.4-1.2-0.5l-0.6,0c-0.1-0.2-0.1-0.5,0-0.5
						c0.9,0,1.8,0.1,2.7,0.1c1,0,1.6,0,2.5-0.1c0.2,0.1,0.2,0.4,0,0.5l-0.6,0c-0.6,0-1.1,0.2-1.2,0.5c-0.3,0.7-0.3,3.3-0.3,4.6v2.5
						c0,2-0.3,4-1.7,5.4c-1,1.1-2.8,1.6-4.6,1.6c-1.6,0-3.3-0.3-4.5-1.2c-1.3-1-1.9-2.6-1.9-5.3v-5.3c0-2.3,0-2.7-1.4-2.8l-0.6,0
						c-0.1-0.1-0.1-0.5,0-0.5c1.2,0,2,0.1,3,0.1c1,0,1.8,0,2.9-0.1c0.1,0.1,0.2,0.5,0,0.5l-0.6,0c-1.4,0.1-1.4,0.5-1.4,2.8v4.9
						c0,3.6,1.2,6,4.9,6c3.5,0,4.8-2.6,4.8-6V135.7z"/>
					<path class="st1" d="M146,132.9c0-1.7-0.1-2.1-1.3-2.2l-0.8-0.1c-0.1-0.1-0.1-0.5,0-0.6c1.4-0.1,3.2-0.2,5.7-0.2
						c1.7,0,3.2,0.1,4.4,0.6c1.1,0.5,2,1.4,2,2.8c0,1.6-1.1,2.5-2.7,3.1c0,0.2,0.2,0.3,0.5,0.3c1.4,0.2,3.5,1.4,3.5,3.8
						c0,2.6-2.3,4.4-7,4.4c-0.8,0-2.1-0.1-3.2-0.1c-1.2,0-2.1,0-3,0.1c-0.2-0.1-0.2-0.4-0.1-0.6l0.5-0.1c1.4-0.2,1.5-0.5,1.5-2.8
						V132.9z M148.2,135.9c0,0.6,0,0.7,1.4,0.6c2.7-0.1,4.1-0.8,4.1-2.9c0-2.2-1.9-3.1-3.9-3.1c-0.6,0-1,0-1.2,0.1
						c-0.3,0.1-0.4,0.2-0.4,0.6V135.9z M148.2,141.2c0,0.8,0.1,2,0.6,2.5c0.5,0.5,1.3,0.6,2.1,0.6c2.4,0,4.1-0.9,4.1-3.2
						c0-1.8-1.1-3.9-5.3-3.9c-1.4,0-1.5,0.1-1.5,0.6V141.2z"/>
					<rect x="71.6" y="151.1" class="st3" width="95.9" height="1.1"/>
					<radialGradient id="SVGID_1_" cx="119.0527" cy="83.9487" r="47.678" gradientUnits="userSpaceOnUse">
						<stop  offset="0" style="stop-color:#FFFFFF"/>
						<stop  offset="0.1322" style="stop-color:#FEFDFC"/>
						<stop  offset="0.2482" style="stop-color:#FDF8F1"/>
						<stop  offset="0.3581" style="stop-color:#FAF0DF"/>
						<stop  offset="0.4642" style="stop-color:#F5E3C6"/>
						<stop  offset="0.5667" style="stop-color:#F0D4A5"/>
						<stop  offset="0.6" style="stop-color:#EECE99"/>
						<stop  offset="0.6009" style="stop-color:#EECE98"/>
						<stop  offset="0.6498" style="stop-color:#EBC277"/>
						<stop  offset="0.7016" style="stop-color:#E8B95B"/>
						<stop  offset="0.7579" style="stop-color:#E6B146"/>
						<stop  offset="0.82" style="stop-color:#E4AC37"/>
						<stop  offset="0.8925" style="stop-color:#E3A92E"/>
						<stop  offset="1" style="stop-color:#E3A82B"/>
					</radialGradient>
					<path class="st4" d="M166.7,75.4c-5-21.6-24.4-37.7-47.6-37.7c-23.5,0-43.2,16.6-47.8,38.8l10.3-5.9l5.7,4c0,0,3.3-1.5,4-1.9
						l4.1,4.3c0,0,8.9,7.1,9.2,7.1c0.3,0,7.9-4.4,7.9-4.4l6.8-4.7l5.9,4.3l4.5,0.9l4.5,3.1c0,0,11-7.3,12.8-8.2c0,0,4.8,1.8,5.2,1.7
						c0.4-0.1,8-5.9,8-5.9L166.7,75.4z"/>
					
						<radialGradient id="SVGID_2_" cx="51.0005" cy="86.5811" r="48.855" gradientTransform="matrix(0.9145 0 0 1 72.5529 0)" gradientUnits="userSpaceOnUse">
						<stop  offset="0.53" style="stop-color:#FFFFFF"/>
						<stop  offset="0.6018" style="stop-color:#FBF4E9"/>
						<stop  offset="0.7509" style="stop-color:#F0D9B0"/>
						<stop  offset="0.77" style="stop-color:#EFD5A8"/>
						<stop  offset="0.8173" style="stop-color:#ECCC96"/>
						<stop  offset="0.88" style="stop-color:#E7BD77"/>
						<stop  offset="0.9234" style="stop-color:#E6B65B"/>
						<stop  offset="0.9708" style="stop-color:#E5B043"/>
						<stop  offset="1" style="stop-color:#E5AE3A"/>
					</radialGradient>
					<path class="st5" d="M119.6,61.6c0.5,0,1,0,1.4,0l1.7-23.7c-1.2-0.1-2.4-0.1-3.6-0.1c-0.8,0-1.6,0-2.4,0.1l1.2,23.8
						C118.5,61.6,119.1,61.6,119.6,61.6z"/>
					
						<radialGradient id="SVGID_3_" cx="72.0552" cy="-256.6411" r="48.9254" gradientTransform="matrix(0.8479 -0.3426 0.3746 0.9272 154.2353 349.2259)" gradientUnits="userSpaceOnUse">
						<stop  offset="0.53" style="stop-color:#FFFFFF"/>
						<stop  offset="0.6018" style="stop-color:#FBF4E9"/>
						<stop  offset="0.7509" style="stop-color:#F0D9B0"/>
						<stop  offset="0.77" style="stop-color:#EFD5A8"/>
						<stop  offset="0.8173" style="stop-color:#ECCC96"/>
						<stop  offset="0.88" style="stop-color:#E7BD77"/>
						<stop  offset="0.9234" style="stop-color:#E6B65B"/>
						<stop  offset="0.9708" style="stop-color:#E5B043"/>
						<stop  offset="1" style="stop-color:#E5AE3A"/>
					</radialGradient>
					<path class="st6" d="M111.5,63l-7.3-22.9c-1.9,0.6-3.8,1.3-5.6,2.2l10.1,21.8C109.6,63.7,110.6,63.3,111.5,63z"/>
					
						<radialGradient id="SVGID_4_" cx="227.791" cy="-558.9556" r="48.9332" gradientTransform="matrix(0.6578 -0.6352 0.6947 0.7193 357.6593 633.3312)" gradientUnits="userSpaceOnUse">
						<stop  offset="0.53" style="stop-color:#FFFFFF"/>
						<stop  offset="0.6018" style="stop-color:#FBF4E9"/>
						<stop  offset="0.7509" style="stop-color:#F0D9B0"/>
						<stop  offset="0.77" style="stop-color:#EFD5A8"/>
						<stop  offset="0.8173" style="stop-color:#ECCC96"/>
						<stop  offset="0.88" style="stop-color:#E7BD77"/>
						<stop  offset="0.9234" style="stop-color:#E6B65B"/>
						<stop  offset="0.9708" style="stop-color:#E5B043"/>
						<stop  offset="1" style="stop-color:#E5AE3A"/>
					</radialGradient>
					<path class="st7" d="M103.4,67.6L88,49c-1.5,1.3-3,2.7-4.4,4.1l17.7,16.6C101.9,69,102.7,68.3,103.4,67.6z"/>
					<radialGradient id="SVGID_5_" cx="119.1924" cy="86.5825" r="48.894" gradientUnits="userSpaceOnUse">
						<stop  offset="0.53" style="stop-color:#FFFFFF"/>
						<stop  offset="0.6018" style="stop-color:#FBF4E9"/>
						<stop  offset="0.7509" style="stop-color:#F0D9B0"/>
						<stop  offset="0.77" style="stop-color:#EFD5A8"/>
						<stop  offset="0.8173" style="stop-color:#ECCC96"/>
						<stop  offset="0.88" style="stop-color:#E7BD77"/>
						<stop  offset="0.9234" style="stop-color:#E6B65B"/>
						<stop  offset="0.9708" style="stop-color:#E5B043"/>
						<stop  offset="1" style="stop-color:#E5AE3A"/>
					</radialGradient>
					<path class="st8" d="M97.7,74.7L76.3,63.2c-0.8,1.5-2,4-2.5,5.4l22.7,8.8C96.8,76.5,97.2,75.6,97.7,74.7z"/>
					
						<radialGradient id="SVGID_6_" cx="173.0883" cy="415.1494" r="48.8841" gradientTransform="matrix(0.8479 0.3426 -0.3746 0.9272 127.9463 -357.644)" gradientUnits="userSpaceOnUse">
						<stop  offset="0.53" style="stop-color:#FFFFFF"/>
						<stop  offset="0.6018" style="stop-color:#FBF4E9"/>
						<stop  offset="0.7509" style="stop-color:#F0D9B0"/>
						<stop  offset="0.77" style="stop-color:#EFD5A8"/>
						<stop  offset="0.8173" style="stop-color:#ECCC96"/>
						<stop  offset="0.88" style="stop-color:#E7BD77"/>
						<stop  offset="0.9234" style="stop-color:#E6B65B"/>
						<stop  offset="0.9708" style="stop-color:#E5B043"/>
						<stop  offset="1" style="stop-color:#E5AE3A"/>
					</radialGradient>
					<path class="st9" d="M130.4,64l10.4-21.2c-1.8-0.9-3.6-1.7-5.5-2.3l-7.8,22.4C128.5,63.2,129.4,63.6,130.4,64z"/>
					
						<radialGradient id="SVGID_7_" cx="424.8359" cy="685.6094" r="48.7761" gradientTransform="matrix(0.6578 0.6352 -0.6947 0.7193 316.0268 -676.4304)" gradientUnits="userSpaceOnUse">
						<stop  offset="0.53" style="stop-color:#FFFFFF"/>
						<stop  offset="0.6018" style="stop-color:#FBF4E9"/>
						<stop  offset="0.7509" style="stop-color:#F0D9B0"/>
						<stop  offset="0.77" style="stop-color:#EFD5A8"/>
						<stop  offset="0.8173" style="stop-color:#ECCC96"/>
						<stop  offset="0.88" style="stop-color:#E7BD77"/>
						<stop  offset="0.9234" style="stop-color:#E6B65B"/>
						<stop  offset="0.9708" style="stop-color:#E5B043"/>
						<stop  offset="1" style="stop-color:#E5AE3A"/>
					</radialGradient>
					<path class="st10" d="M137.9,69.6l17.6-15.7c-1.3-1.5-2.7-2.9-4.2-4.2l-15.5,17.7C136.4,68.1,137.2,68.8,137.9,69.6z"/>
					
						<radialGradient id="SVGID_8_" cx="767.5664" cy="852.915" r="48.7097" gradientTransform="matrix(0.3719 0.8354 -0.9135 0.4067 612.8737 -901.5236)" gradientUnits="userSpaceOnUse">
						<stop  offset="0.53" style="stop-color:#FFFFFF"/>
						<stop  offset="0.6018" style="stop-color:#FBF4E9"/>
						<stop  offset="0.7509" style="stop-color:#F0D9B0"/>
						<stop  offset="0.77" style="stop-color:#EFD5A8"/>
						<stop  offset="0.8173" style="stop-color:#ECCC96"/>
						<stop  offset="0.88" style="stop-color:#E7BD77"/>
						<stop  offset="0.9234" style="stop-color:#E6B65B"/>
						<stop  offset="0.9708" style="stop-color:#E5B043"/>
						<stop  offset="1" style="stop-color:#E5AE3A"/>
					</radialGradient>
					<path class="st11" d="M142.9,77.6l22.1-7.9c-0.7-1.9-1.5-3.7-2.4-5.4l-21,10.6C142.1,75.7,142.5,76.7,142.9,77.6z"/>
					<radialGradient id="SVGID_9_" cx="119.0957" cy="86.5981" r="48.8639" gradientUnits="userSpaceOnUse">
						<stop  offset="0.72" style="stop-color:#FFFFFF"/>
						<stop  offset="0.8064" style="stop-color:#FCF6ED"/>
						<stop  offset="0.98" style="stop-color:#F4E0BD"/>
						<stop  offset="1" style="stop-color:#F3DDB7"/>
					</radialGradient>
					<path class="st12" d="M112.6,79.7l6.8-4.7l5.9,4.3l4.5,0.9l4.5,3.1c0,0,5-3.3,8.8-5.7c-0.7-1.7-1.5-3.4-2.5-4.9l16.5-12.8
						l-17.5,11.3c-1.6-2.1-3.5-3.9-5.6-5.3l10.3-17.7l-11.8,16.7c-2.2-1.3-4.6-2.3-7.2-2.9l3-20.4l-4.7,20c-1.3-0.2-2.6-0.3-4-0.3
						c-1.4,0-2.8,0.1-4.2,0.4l-4.7-20.1l3,20.4c-2.5,0.6-4.9,1.6-7.1,3L94.7,48.2L105.1,66c-2.1,1.5-3.9,3.3-5.5,5.3L81.9,59.9
						l16.6,12.9c-1,1.5-1.8,3.1-2.4,4.7c2.1,1.6,8.3,6.6,8.5,6.6C105,84.1,112.6,79.7,112.6,79.7z"/>
					<path class="st13" d="M166.6,75.1l-6.3-4.5c0,0-7.5,5.8-8,5.9c-0.4,0.1-5.2-1.7-5.2-1.7c-1.8,0.9-12.8,8.2-12.8,8.2l-4.5-3.1
						l-4.5-0.9l-5.9-4.3l-6.8,4.7c0,0-7.6,4.4-7.9,4.4c-0.3,0-9.2-7.1-9.2-7.1l-4.1-4.3c-0.7,0.4-4,1.9-4,1.9l-5.7-4l-10.2,5.8
						c-0.7,3.3-1.1,6.8-1.1,10.4c0,3.1,0.3,6.2,0.9,9.1c4.3-0.8,12.1-1.9,18.6-1.1c9.5,1.2,15.4,2.8,25.3,5
						c10,2.3,17.3,4.4,28.1,3.2c10.1-1.1,17.4-3.2,24.1-8c0.5-2.7,0.7-5.5,0.7-8.3C168,82.6,167.5,78.8,166.6,75.1z"/>
					<g>
						<path class="st1" d="M103,123.3l-0.6-0.1c-0.1,0-0.2,0-0.3,0c-0.9-0.2-1.3-1-1.7-1.7l-2.2-3.8c-0.4-0.6-0.8-1.5-1.6-1.6
							c2.2-0.3,4.2-1.5,4.2-3.7c0-2.5-2.5-3.7-5-3.7c-1.5,0-2.9,0-4.5,0c-0.9,0-1.9,0-2.7,0c-0.5,0-0.5,0.1-0.5,0.4
							c0,0.4,0.2,0.3,0.7,0.3c1.8,0.1,1.7,0.4,1.7,2v9.9c0,1.4,0.1,1.8-1.4,2c0,0-0.2,0-0.4,0l-0.6,0.1c-0.2,0.1-0.1,0.5,0,0.6
							c0.3,0,0.9,0,0.9,0c0.8,0,1.6-0.1,2.5-0.1c0.8,0,1.6,0.1,2.4,0.1v0c0.3,0,0.6,0,0.9,0c0.2-0.1,0.2-0.4,0.1-0.6l-0.6-0.1
							c-0.1,0-0.4,0-0.4,0c-1.5-0.1-1.4-0.5-1.4-2v-3.7c0-0.2,0-0.8,0.1-1c0.1-0.1,0.4-0.1,0.6-0.1c2,0,2,0.2,3,1.9l2.6,4.7
							c0.2,0.4,0.4,0.8,0.9,0.8h2.3c0.3,0,0.6,0,0.9,0C103.1,123.8,103.1,123.5,103,123.3z M93.9,115.9c-0.5,0-1.4,0.2-1.4-0.4v-4.3
							c0-1.7,0.1-1.9,2.1-1.9c2.4,0,3.8,1.2,3.8,3.4c0,1-0.3,1.9-1.2,2.5C96.2,115.8,95.1,115.9,93.9,115.9z"/>
					</g>
					<g>
						<path class="st1" d="M94.4,133.5c0-2.4,0-2.7-1.6-2.8l-0.6,0c-0.1-0.1-0.1-0.5,0-0.6c1.4,0,2.2,0.1,3.2,0.1c1,0,1.8,0,3.1-0.1
							c0.1,0.1,0.2,0.5,0,0.6l-0.6,0c-1.5,0.1-1.5,0.5-1.5,2.8v7.8c0,1.4,0.1,2,0.5,2.4c0.3,0.2,0.7,0.5,2.7,0.5
							c2.1,0,2.6-0.1,3-0.3c0.5-0.3,1.1-1.1,1.6-2.2c0.1-0.1,0.6,0,0.6,0.1c0,0.2-0.7,2.5-1,3.2c-1.3,0-3.6-0.1-6.2-0.1h-2.3
							c-1,0-1.8,0-3.2,0.1c-0.1-0.1-0.2-0.4,0-0.6l0.7-0.1c1.4-0.1,1.5-0.5,1.5-2.8V133.5z"/>
						<path class="st1" d="M160.8,133.5c0-2.4,0-2.8-1.5-2.9l-0.6,0c-0.1-0.1-0.1-0.5,0-0.6c1.2,0,2,0.1,3.1,0.1c1,0,1.8,0,3-0.1
							c0.1,0.1,0.2,0.5,0,0.6l-0.6,0c-1.4,0.1-1.5,0.5-1.5,2.9v8c0,2.4,0,2.7,1.5,2.9l0.6,0.1c0.1,0.1,0.1,0.5,0,0.6
							c-1.2,0-2-0.1-3-0.1c-1,0-1.8,0-3.1,0.1c-0.1-0.1-0.2-0.4,0-0.6l0.6-0.1c1.4-0.2,1.5-0.5,1.5-2.9V133.5z"/>
						<path class="st1" d="M141.3,144.4c-0.1,0-0.4,0-0.4,0c-0.3,0-0.5-0.1-0.7-0.3c-0.3-0.3-0.3-1.3-0.3-1.7v-9.9
							c0-0.4-0.1-1.4,0.2-1.7c0.2-0.2,0.5-0.2,0.8-0.2v0c0.2,0,0.2,0,0.3,0l0.6,0c0.2-0.1,0.1-0.5,0-0.6c-0.3,0-0.6,0-0.9,0v0h-2.7
							c-0.3,0-0.6,0-0.7,0.3l-5.4,11.3l-4.8-10.9c-0.2-0.4-0.2-0.7-0.7-0.7H124c-0.3,0-0.6,0-0.9,0c-0.1,0.1-0.2,0.5-0.1,0.6l0.6,0
							c0.1,0,0.4,0,0.4,0c1,0.1,1.1,0.3,1,1.4l-0.8,10.6c-0.1,1.1-0.1,1.6-1.2,1.7c0,0-0.2,0-0.4,0l-0.6,0.1
							c-0.1,0.1-0.1,0.5,0.1,0.6c0.3,0,0.9,0,0.9,0c0.6,0,1.1-0.1,1.7-0.1c0.6,0,1.2,0.1,1.9,0.1v0c0.3,0,0.6,0,0.9,0
							c0.2-0.1,0.2-0.4,0.1-0.6l-0.6-0.1c-0.2,0-0.3,0-0.3,0c-1.6-0.1-1.6-1.2-1.5-2.6l0.8-9.9h0.2l5.2,12.1
							c0.1,0.2,0.1,0.5,0.4,0.5c0.2,0,0.3-0.3,0.4-0.4l5.8-12.4h0.2v10.8c0,0.4,0.1,1.3-0.4,1.6c-0.2,0.2-1,0.3-1,0.3
							c-0.1,0-0.2,0-0.3,0l-0.6,0.1c-0.1,0.1-0.1,0.5,0.1,0.6c0.3,0,0.9,0,0.9,0c0.8,0,1.7-0.1,2.6-0.1c0.6,0,1.8,0.1,1.8,0.1
							c0.3,0,0.6,0,1,0.1c0.2-0.1,0.2-0.4,0.1-0.6L141.3,144.4z"/>
						<g>
							<path class="st1" d="M182,144.5L182,144.5c-0.2-0.1-0.3-0.1-0.4-0.1c-1-0.2-1.4-1.4-1.7-2.2l-5-11.9c0-0.1-0.1-0.5-0.3-0.5
								c-0.3,0-0.3,0.3-0.4,0.5l-4.8,11.8c-0.2,0.5-0.6,1.5-0.9,1.9c-0.2,0.3-0.6,0.3-0.9,0.3c0,0-0.3,0-0.4,0l-0.6,0.1
								c-0.2,0.1-0.1,0.5,0,0.6c0.3,0,0.9,0,0.9,0c0.7,0,1.3-0.1,2-0.1c0.6,0,1.1,0.1,1.7,0.1c0,0,0.6,0,0.9,0
								c0.2-0.1,0.2-0.4,0.1-0.6l-0.6-0.1c-0.1,0-0.3,0-0.3,0c-0.6-0.1-1.3-0.2-1.3-0.8c0-0.4,0.2-0.9,0.3-1.3l0.7-1.8
								c0.4-0.9,0.2-0.9,1.2-0.9h3.4c1.2,0,1,0,1.5,1.2l0.8,1.8c0.1,0.3,0.3,0.8,0.3,1.2c0,0.6-0.6,0.6-1.3,0.7c0,0-0.2,0-0.4,0
								l-0.6,0c-0.2,0.1-0.1,0.5,0,0.6c0.3,0,0.9,0,0.9,0c0.7,0,1.4-0.1,2.1-0.1c0.9,0,1.7,0.1,2.6,0.1l0,0c0.3,0,0,0,0.4,0
								C182.1,145,182.1,144.6,182,144.5z M175.4,138.9h-2.9c-0.1,0-0.9,0.1-0.9-0.1c0-0.1,0.1-0.2,0.1-0.3l1.8-4.4
								c0.1-0.1,0.2-0.7,0.4-0.7c0.2,0,0.4,0.6,0.4,0.7l1.7,4.1c0,0,0.2,0.4,0.2,0.5C176.1,139,175.6,138.9,175.4,138.9z"/>
						</g>
					</g>
				</g>
			</g>
		</g>
	</g>
</g>
</svg>
